<svg xmlns="http://www.w3.org/2000/svg" version="1.1" xmlns:xlink="http://www.w3.org/1999/xlink" xmlns:svgjs="http://svgjs.dev/svgjs" width="1500" height="534" viewBox="0 0 1500 534"><g transform="matrix(1,0,0,1,-0.9090909090911055,-1.1377786006943893)"><svg viewBox="0 0 396 141" data-background-color="#ffffff" preserveAspectRatio="xMidYMid meet" height="534" width="1500" xmlns="http://www.w3.org/2000/svg" xmlns:xlink="http://www.w3.org/1999/xlink"><g id="tight-bounds" transform="matrix(1,0,0,1,0.24000000000003752,0.30042468670021094)"><svg viewBox="0 0 395.5199999999999 140.3991506265996" height="140.3991506265996" width="395.5199999999999"><g><svg viewBox="0 0 397.4975999999999 141.1011463797326" height="140.3991506265996" width="395.5199999999999"><g><rect width="397.4975999999999" height="4.036300349235835" x="0" y="72.42144583009565" fill="#3d3d3d" opacity="1" stroke-width="0" stroke="transparent" fill-opacity="1" class="rect-yte-0" data-fill-palette-color="primary" rx="1%" id="yte-0" data-palette-color="#3d3d3d"></rect></g><g><rect width="397.4975999999999" height="4.036300349235835" x="0" y="81.74086181969253" fill="#3d3d3d" opacity="1" stroke-width="0" stroke="transparent" fill-opacity="1" class="rect-yte-1" data-fill-palette-color="primary" rx="1%" id="yte-1" data-palette-color="#3d3d3d"></rect></g><g transform="matrix(1,0,0,1,0.9887999999999693,96.34339344965043)"><svg viewBox="0 0 395.52 44.75775293008218" height="44.75775293008218" width="395.52"><g id="textblocktransform"><svg viewBox="0 0 395.52 44.75775293008218" height="44.75775293008218" width="395.52" id="textblock"><g><svg viewBox="0 0 395.52 44.75775293008218" height="44.75775293008218" width="395.52"><g transform="matrix(1,0,0,1,0,0)"><svg width="395.52" viewBox="1.95 -31.74 362.41 41.019999999999996" height="44.75775293008218" data-palette-color="#3d3d3d"><path d="M15.58-29.3L1.95-29.3 1.95-28.03 5.86-28.03 5.86-1.27 1.95-1.27 1.95 0 15.43 0Q22.02 0 26.27-4.1L26.27-4.1Q30.47-8.15 30.47-14.65L30.47-14.65Q30.47-23.05 24.32-26.95L24.32-26.95Q20.56-29.3 15.58-29.3L15.58-29.3ZM10.06-28.03L15.43-28.03Q23.14-28.03 25.05-21L25.05-21Q25.78-18.41 25.78-14.84L25.78-14.84Q25.78-2.69 17.48-1.42L17.48-1.42Q16.55-1.27 15.58-1.27L15.58-1.27 10.06-1.27 10.06-28.03ZM53.71-24.61L53.71-24.61Q53.71-27.59 56.1-28.37L56.1-28.37Q56.68-28.56 57.32-28.56L57.32-28.56Q59.91-28.56 60.69-26.37L60.69-26.37Q60.93-25.63 60.93-24.9L60.93-24.9Q60.93-22.61 58.54-20.8L58.54-20.8Q57.17-19.78 55.37-19.29L55.37-19.29Q53.71-22.61 53.71-24.61ZM55.81-0.98L55.81-0.98Q50.34-0.98 48.92-6.45L48.92-6.45Q48.53-8.01 48.53-9.86L48.53-9.86Q48.53-14.16 51.26-16.11L51.26-16.11Q52-16.6 52.73-16.85L52.73-16.85Q56-10.69 62.25-3.32L62.25-3.32Q59.42-0.98 55.81-0.98ZM68.35-15.58L68.35-15.58 68.31-15.58 68.45-15.58 69.97-15.63Q71.09-15.63 71.24-16.21L71.24-16.21Q71.33-16.55 71.33-16.94L71.33-16.94 64.3-16.94 64.3-15.67 66.99-15.67Q66.99-10.25 64.64-6.2L64.64-6.2Q58.83-13.04 55.95-18.21L55.95-18.21Q60-19.34 61.66-22.46L61.66-22.46Q62.3-23.68 62.3-24.9L62.3-24.9Q62.3-28.08 59.52-29.3L59.52-29.3Q58.44-29.79 57.22-29.79L57.22-29.79Q52.63-29.79 51.07-26.61L51.07-26.61Q50.43-25.29 50.43-23.78L50.43-23.78Q50.48-21.53 52.19-17.92L52.19-17.92Q46.48-16.36 44.87-11.72L44.87-11.72Q44.38-10.25 44.38-8.59L44.38-8.59Q44.38-4.15 47.75-1.56L47.75-1.56Q50.43 0.49 54.24 0.49L54.24 0.49Q59.61 0.44 63.03-2.39L63.03-2.39Q63.76-1.51 65.18 0L65.18 0 72.07 0Q72.07-1.12 71.28-1.22L71.28-1.22Q71.09-1.27 70.84-1.27L70.84-1.27 69.04-1.27Q67.87-2.54 65.57-5.13L65.57-5.13Q68.35-9.42 68.35-15.58ZM104.82-7.67L104.82-7.67Q104.82-12.01 100.14-14.65L100.14-14.65Q99.21-15.14 94.42-17.24L94.42-17.24Q90.08-19.09 88.95-21.04L88.95-21.04Q88.37-22.12 88.37-23.34L88.37-23.34Q88.37-26.61 91.54-27.88L91.54-27.88Q92.91-28.42 94.57-28.42L94.57-28.42Q98.67-28.42 100.82-25.63L100.82-25.63Q102.24-23.73 102.19-21L102.19-21 103.65-21 103.65-29.54Q102.48-29.54 102.28-28.81L102.28-28.81Q102.19-28.47 102.19-27.88L102.19-27.88Q98.72-29.79 94.37-29.79L94.37-29.79Q89.1-29.79 86.17-26.86L86.17-26.86Q84.22-24.8 84.22-22.07L84.22-22.07Q84.22-17.97 88.81-15.38L88.81-15.38Q89.64-14.94 94.37-12.89L94.37-12.89Q98.77-10.94 99.94-8.94L99.94-8.94Q100.58-7.81 100.58-6.49L100.58-6.49Q100.58-3.08 97.26-1.56L97.26-1.56Q95.69-0.88 93.79-0.88L93.79-0.88Q86.32-0.98 85.49-10.01L85.49-10.01 84.02-10.01 84.02 0.1Q85.2 0.1 85.39-0.59L85.39-0.59Q85.49-0.98 85.49-2L85.49-2Q89.25 0.49 94.03 0.49L94.03 0.49Q99.65 0.49 102.72-2.54L102.72-2.54Q104.82-4.69 104.82-7.67ZM126.84-28.03L132.16-28.03Q136.51-28.03 137.78-24.12L137.78-24.12Q138.17-22.85 138.17-21.39L138.17-21.39Q138.17-15.04 132.5-14.4L132.5-14.4Q131.92-14.36 131.33-14.36L131.33-14.36 126.84-14.36 126.84-28.03ZM118.74 0L131.72 0Q131.72-1.07 130.94-1.22L130.94-1.22Q130.7-1.27 130.45-1.27L130.45-1.27 126.84-1.27 126.84-12.94 131.14-12.94Q139.15-12.94 141.73-17.48L141.73-17.48Q142.76-19.19 142.76-21.44L142.76-21.44Q142.76-26.27 138.56-28.22L138.56-28.22Q136.31-29.3 133.19-29.3L133.19-29.3 118.74-29.3 118.74-28.03 122.64-28.03 122.64-1.27 118.74-1.27 118.74 0ZM156.62-1.22L156.62-1.22 153.11-1.22 153.11-10.94Q153.11-15.38 155.84-18.07L155.84-18.07Q156.92-19.09 157.65-19.14L157.65-19.14Q158.48-19.14 159.16-17.92L159.16-17.92Q159.94-16.55 160.63-16.36L160.63-16.36Q160.92-16.26 161.21-16.26L161.21-16.26Q162.68-16.26 163.07-17.68L163.07-17.68Q163.17-17.97 163.17-18.26L163.17-18.26Q163.17-20.46 160.92-20.95L160.92-20.95Q160.43-21.04 159.99-21.04L159.99-21.04Q157.06-21.04 154.77-18.55L154.77-18.55Q153.69-17.38 153.06-15.92L153.06-15.92 152.86-20.75 145.78-20.75 145.78-19.53 149.45-19.53 149.45-4.15Q149.45-1.9 148.18-1.46L148.18-1.46Q147.44-1.22 145.78-1.22L145.78-1.22 145.78 0 157.84 0Q157.84-1.07 157.11-1.17L157.11-1.17Q156.92-1.22 156.62-1.22ZM169.51-10.4L169.51-10.4Q169.51-17.97 173.66-19.63L173.66-19.63Q174.74-20.02 175.91-20.02L175.91-20.02Q181.33-20.02 182.21-13.18L182.21-13.18Q182.35-12.01 182.35-10.6L182.35-10.6Q182.35-2.39 177.86-0.98L177.86-0.98Q176.98-0.73 176.05-0.73L176.05-0.73Q171.12-0.73 169.85-6.59L169.85-6.59Q169.51-8.3 169.51-10.4ZM176.05-21.24L176.05-21.24Q171.37-21.24 168.24-18.02L168.24-18.02Q165.36-15.04 165.36-10.6L165.36-10.6Q165.36-4.44 169.85-1.37L169.85-1.37Q172.59 0.49 175.91 0.49L175.91 0.49Q180.6 0.49 183.67-2.83L183.67-2.83Q186.5-5.86 186.5-10.4L186.5-10.4Q186.5-16.55 181.96-19.53L181.96-19.53Q179.28-21.24 176.05-21.24ZM198.12-27.88L198.12-27.88Q198.12-29.59 196.61-30.32L196.61-30.32Q196.02-30.57 195.49-30.57L195.49-30.57Q193.78-30.57 193.04-29L193.04-29Q192.8-28.47 192.8-27.88L192.8-27.88Q192.8-26.07 194.41-25.39L194.41-25.39Q194.95-25.2 195.49-25.2L195.49-25.2Q197.19-25.2 197.88-26.76L197.88-26.76Q198.12-27.29 198.12-27.88ZM197.63-20.75L190.07-20.75 190.07-19.53 193.97-19.53 193.97 3.32Q193.83 8.01 191.97 8.06L191.97 8.06Q190.99 8.06 190.65 6.74L190.65 6.74Q190.21 5.18 189.82 4.83L189.82 4.83Q189.38 4.54 188.84 4.54L188.84 4.54Q187.38 4.54 187.04 5.86L187.04 5.86Q186.99 6.1 186.99 6.3L186.99 6.3Q186.99 8.01 189.09 8.89L189.09 8.89Q190.07 9.28 191.09 9.28L191.09 9.28Q194.46 9.28 196.32 6.25L196.32 6.25Q197.63 4 197.63 0.63L197.63 0.63 197.63-20.75ZM213.6-20.02L213.6-20.02Q217.02-20.02 218.14-17.14L218.14-17.14Q218.53-16.21 218.53-15.14L218.53-15.14Q218.53-12.7 216.19-12.16L216.19-12.16Q214.97-11.91 212.72-11.96L212.72-11.96 207.54-12.11Q207.79-17.72 211.21-19.43L211.21-19.43Q212.33-20.02 213.6-20.02ZM222.09-4.69L222.09-4.69 220.87-5.13Q219.16-1.42 215.36-0.93L215.36-0.93Q214.87-0.88 214.43-0.88L214.43-0.88Q209.3-0.88 207.98-6.98L207.98-6.98Q207.59-8.69 207.54-10.74L207.54-10.74 213.4-10.64Q219.36-10.55 221.07-11.77L221.07-11.77Q222.39-12.74 222.39-14.55L222.39-14.55Q222.39-17.87 219.02-19.82L219.02-19.82Q216.63-21.24 213.5-21.24L213.5-21.24Q207.4-21.24 204.76-16.16L204.76-16.16Q203.39-13.53 203.39-10.21L203.39-10.21Q203.39-4.15 207.74-1.22L207.74-1.22Q210.33 0.49 213.65 0.49L213.65 0.49Q218.92 0.49 221.41-3.32L221.41-3.32Q221.8-4 222.09-4.69ZM226.05-10.16L226.05-10.16Q226.05-4.25 230.39-1.32L230.39-1.32Q233.08 0.49 236.5 0.49L236.5 0.49Q241.57 0.49 244.16-3.08L244.16-3.08Q244.75-3.91 245.09-4.74L245.09-4.74 243.82-5.18Q242.01-1.32 237.86-0.93L237.86-0.93Q237.47-0.88 237.08-0.88L237.08-0.88Q233.62-0.88 231.66-4.35L231.66-4.35Q230.2-6.98 230.2-10.6L230.2-10.6Q230.2-16.99 233.57-19.14L233.57-19.14Q234.98-20.02 236.69-20.02L236.69-20.02Q239.33-20.02 239.87-17.97L239.87-17.97Q239.96-17.58 240.11-16.75L240.11-16.75Q240.4-14.79 241.18-14.31L241.18-14.31Q241.67-14.06 242.26-14.01L242.26-14.01Q243.92-13.92 244.36-15.38L244.36-15.38Q244.45-15.72 244.45-16.02L244.45-16.02Q244.45-18.51 241.28-20.12L241.28-20.12Q239.04-21.24 236.4-21.24L236.4-21.24Q229.86-21.24 227.27-15.92L227.27-15.92Q226.05-13.38 226.05-10.16ZM246.31-20.75L246.31-19.53 249.73-19.53 249.73-5.76Q250.07 0.34 255.34 0.54L255.34 0.54Q259.83 0.54 260.96-4.98L260.96-4.98Q260.96-5.03 260.96-5.08L260.96-5.08 259.64-5.32Q258.42-1.27 256.07-0.93L256.07-0.93Q253.44-1.03 253.39-4.69L253.39-4.69 253.39-19.53 260.96-19.53 260.96-20.75 253.39-20.75 253.39-26.42 249.73-25.39 249.73-20.75 246.31-20.75ZM270.48-0.83L270.48-0.83Q273.84-0.83 275.02-2.88L275.02-2.88Q275.46-3.61 275.46-4.49L275.46-4.49Q275.46-6.54 272.48-8.01L272.48-8.01Q271.84-8.35 270.38-8.98L270.38-8.98Q266.37-10.64 265.06-12.11L265.06-12.11Q263.64-13.72 263.64-15.87L263.64-15.87Q263.64-19.24 267.35-20.61L267.35-20.61Q269.06-21.24 271.06-21.24L271.06-21.24Q274.28-21.24 276.63-19.87L276.63-19.87Q276.63-21.29 277.31-21.48L277.31-21.48Q277.6-21.53 277.95-21.53L277.95-21.53 277.95-15.43 276.68-15.43Q276.58-19.92 271.7-19.97L271.7-19.97Q268.03-19.97 267.16-17.82L267.16-17.82Q266.91-17.24 266.91-16.6L266.91-16.6Q266.91-14.5 269.94-13.04L269.94-13.04Q270.62-12.7 272.09-12.11L272.09-12.11Q276.04-10.5 277.36-9.03L277.36-9.03Q278.78-7.47 278.78-5.32L278.78-5.32Q278.78-1.37 274.58-0.05L274.58-0.05Q272.97 0.49 271.06 0.49L271.06 0.49Q267.55 0.44 264.96-1.27L264.96-1.27Q264.96 0 264.32 0.2L264.32 0.2Q264.03 0.24 263.64 0.24L263.64 0.24 263.64-7.18 265.01-7.18Q265.1-0.88 270.48-0.83ZM292.2 0L313.59 0 313.83-9.77 312.85-9.77 312.02-6.49Q310.85-2 308.12-1.37L308.12-1.37Q307.53-1.27 306.99-1.27L306.99-1.27 300.3-1.27 300.3-28.03 304.41-28.03 304.41-29.3 292.2-29.3 292.2-28.03 296.11-28.03 296.11-1.27 292.2-1.27 292.2 0ZM315.29-20.75L315.29-19.53 318.71-19.53 318.71-5.76Q319.05 0.34 324.33 0.54L324.33 0.54Q328.82 0.54 329.94-4.98L329.94-4.98Q329.94-5.03 329.94-5.08L329.94-5.08 328.62-5.32Q327.4-1.27 325.06-0.93L325.06-0.93Q322.42-1.03 322.37-4.69L322.37-4.69 322.37-19.53 329.94-19.53 329.94-20.75 322.37-20.75 322.37-26.42 318.71-25.39 318.71-20.75 315.29-20.75ZM348.4-5.18L348.79 0 355.77 0Q355.77-1.07 355.04-1.17L355.04-1.17Q354.84-1.22 354.55-1.22L354.55-1.22 352.11-1.22 352.01-31.74 343.71-31.74 343.71-30.52 348.35-30.52 348.35-18.6Q345.95-21.24 341.9-21.24L341.9-21.24Q336.53-21.24 333.8-16.46L333.8-16.46Q332.14-13.53 332.14-9.86L332.14-9.86Q332.14-3.81 335.94-1.03L335.94-1.03Q338.09 0.49 340.68 0.49L340.68 0.49Q346 0.39 348.4-5.18L348.4-5.18ZM336.29-10.45L336.29-10.45Q336.29-17.33 340-19.38L340-19.38Q341.17-20.02 342.58-20.02L342.58-20.02Q346.15-20.02 347.66-16.21L347.66-16.21Q348.49-14.16 348.49-11.38L348.49-11.38Q348.49-5.52 345.56-2.88L345.56-2.88Q344-1.46 342-1.46L342-1.46Q337.99-1.46 336.77-6.35L336.77-6.35Q336.29-8.15 336.29-10.45ZM364.36-2.25L364.36-2.25Q364.36-3.86 362.89-4.54L362.89-4.54Q362.41-4.79 361.87-4.79L361.87-4.79Q360.26-4.79 359.62-3.32L359.62-3.32Q359.38-2.78 359.38-2.25L359.38-2.25Q359.38-0.68 360.79 0L360.79 0Q361.33 0.24 361.87 0.24L361.87 0.24Q363.43 0.24 364.12-1.17L364.12-1.17Q364.36-1.71 364.36-2.25Z" opacity="1" transform="matrix(1,0,0,1,0,0)" fill="#3d3d3d" class="wordmark-text-0" data-fill-palette-color="primary" id="text-0"></path></svg></g></svg></g></svg></g></svg></g><g transform="matrix(1,0,0,1,161.01038329917606,0)"><svg viewBox="0 0 75.4768334016478 61.85521454937357" height="61.85521454937357" width="75.4768334016478"><g><svg xmlns="http://www.w3.org/2000/svg" xmlns:xlink="http://www.w3.org/1999/xlink" version="1.1" x="0" y="0" viewBox="4.46 12.623 89.08200000000001 73.005" enable-background="new 0 0 100 100" xml:space="preserve" height="61.85521454937357" width="75.4768334016478" class="icon-icon-0" data-fill-palette-color="accent" id="icon-0"><path fill="#f36527" d="M11.397 69.293V85.627H53.856V69.293zM24.458 82.123H14.666V72.983H24.458zM34.261 82.123H27.726V72.983H34.261zM47.321 82.123H37.518V72.983H47.321z" data-fill-palette-color="accent"></path><rect x="50.725" y="49.303" fill="#f36527" width="3.132" height="17.947" data-fill-palette-color="accent"></rect><rect x="36.504" y="59.751" fill="#f36527" width="12.098" height="2.614" data-fill-palette-color="accent"></rect><rect x="36.504" y="55.036" fill="#f36527" width="12.098" height="2.565" data-fill-palette-color="accent"></rect><rect x="36.504" y="64.583" fill="#f36527" width="12.098" height="2.667" data-fill-palette-color="accent"></rect><rect x="31.012" y="53.684" fill="#f36527" width="3.23" height="13.566" data-fill-palette-color="accent"></rect><polygon fill="#f36527" points="28.806,67.293 28.806,64.53 16.831,64.53 16.831,67.25 " data-fill-palette-color="accent"></polygon><rect x="11.397" y="60.377" fill="#f36527" width="3.268" height="6.873" data-fill-palette-color="accent"></rect><path fill="#f36527" d="M77.023 35.129L70.074 12.623 64.133 35.129H57.787L56.844 33.702H11.999L4.46 41.664H60.865V48.213H64.133V77.918H61.978L57.125 85.628H86.227L81.374 77.918H77.204V48.212H80.471V41.663H83.74V48.199H93.542V35.129zM16.397 38.766H11.096L13.268 36.595H18.565zM25.542 38.766H20.241L22.413 36.595H27.711zM34.696 38.766H29.395L31.568 36.595H36.866zM43.84 38.766H38.539L40.712 36.595H46.01zM47.797 38.766L49.971 36.595H55.288L56.725 38.766zM70.259 21.438L71.911 26.788 67.828 30.637zM64.128 44.928V38.4H73.94V44.928zM73.936 48.695L67.401 54.245V48.695zM73.551 77.917H67.4V76.859L73.935 70.705zM73.936 66.191L67.401 72.341V67.39L73.936 61.24zM73.936 57.145L67.4 63.293V58.344L73.935 52.192V57.145zM67.409 35.129L72.892 29.96 74.486 35.129z" data-fill-palette-color="accent"></path></svg></g></svg></g><g></g></svg></g><defs></defs></svg><rect width="395.5199999999999" height="140.3991506265996" fill="none" stroke="none" visibility="hidden"></rect></g></svg></g></svg>