<svg width="62" height="51" viewBox="0 0 62 51" fill="none" xmlns="http://www.w3.org/2000/svg">
<g clip-path="url(#clip0_9827_22217)">
<g clip-path="url(#clip1_9827_22217)">
<path d="M5.62793 39.6875V50.8744H34.7074V39.6875H5.62793ZM14.5732 48.4746H7.86682V42.2147H14.5732V48.4746ZM21.2871 48.4746H16.8114V42.2147H21.2871V48.4746ZM30.2317 48.4746H23.5178V42.2147H30.2317V48.4746Z" fill="#F36527"/>
<path d="M34.7085 26H32.5635V38.2916H34.7085V26Z" fill="#F36527"/>
<path d="M31.109 33.1484H22.8232V34.9387H31.109V33.1484Z" fill="#F36527"/>
<path d="M31.109 29.9219H22.8232V31.6786H31.109V29.9219Z" fill="#F36527"/>
<path d="M31.109 36.4609H22.8232V38.2875H31.109V36.4609Z" fill="#F36527"/>
<path d="M21.2737 29H19.0615V38.2911H21.2737V29Z" fill="#F36527"/>
<path d="M17.5511 38.3142V36.4219H9.34961V38.2848L17.5511 38.3142Z" fill="#F36527"/>
<path d="M7.86613 33.5781H5.62793V38.2853H7.86613V33.5781Z" fill="#F36527"/>
<path d="M50.5742 16.289L45.815 0.875L41.7461 16.289H37.3998L36.7539 15.3117H6.0403L0.876953 20.7647H39.5079V25.25H41.7461V45.5945H40.2701L36.9464 50.875H56.8779L53.5542 45.5945H50.6982V25.2494H52.9357V20.764H55.1746V25.2405H61.8878V16.289H50.5742ZM9.05242 18.7799H5.42185L6.90942 17.2931H10.5373L9.05242 18.7799ZM15.3157 18.7799H11.6851L13.1727 17.2931H16.8012L15.3157 18.7799ZM21.5851 18.7799H17.9546L19.4428 17.2931H23.0713L21.5851 18.7799ZM27.8477 18.7799H24.2171L25.7054 17.2931H29.3339L27.8477 18.7799ZM30.5578 18.7799L32.0467 17.2931H35.6883L36.6724 18.7799H30.5578ZM45.9417 6.91226L47.0731 10.5764L44.2767 13.2125L45.9417 6.91226ZM41.7426 23.0002V18.5293H48.4627V23.0002H41.7426ZM48.46 25.5802L43.9843 29.3813V25.5802H48.46ZM48.1963 45.5939H43.9836V44.8692L48.4593 40.6545L48.1963 45.5939ZM48.46 37.5629L43.9843 41.7749V38.3841L48.46 34.172V37.5629ZM48.46 31.3674L43.9836 35.5781V32.1886L48.4593 27.9752L48.46 31.3674ZM43.9897 16.289L47.745 12.7488L48.8367 16.289H43.9897Z" fill="#F36527"/>
</g>
</g>
<defs>
<clipPath id="clip0_9827_22217">
<rect width="61.0109" height="50" fill="white" transform="translate(0.876953 0.875)"/>
</clipPath>
<clipPath id="clip1_9827_22217">
<rect width="61.0109" height="50" fill="white" transform="translate(0.876953 0.875)"/>
</clipPath>
</defs>
</svg>
